<?xml version="1.0" standalone="no"?>
<!DOCTYPE svg PUBLIC "-//W3C//DTD SVG 20010904//EN"
 "http://www.w3.org/TR/2001/REC-SVG-20010904/DTD/svg10.dtd">
<svg version="1.0" xmlns="http://www.w3.org/2000/svg"
 width="1024.000000pt" height="1024.000000pt" viewBox="0 0 1024.000000 1024.000000"
 preserveAspectRatio="xMidYMid meet">

<g transform="translate(0.000000,1024.000000) scale(0.100000,-0.100000)"
fill="#2563EB" stroke="none">
<path d="M9695 8933 c-86 -8 -205 -34 -285 -64 -91 -33 -278 -117 -344 -156
-26 -14 -58 -23 -86 -23 -80 -1 -326 -75 -421 -127 -69 -37 -90 -83 -39 -83
10 0 21 -4 24 -9 3 -5 35 -15 71 -22 36 -7 65 -16 65 -19 0 -17 -237 -223
-248 -216 -4 2 -111 10 -236 16 -226 12 -229 12 -257 -9 -15 -12 -31 -21 -34
-21 -4 0 -56 -30 -116 -67 -189 -117 -233 -144 -254 -153 -44 -22 -199 -126
-202 -137 -4 -10 69 -13 322 -15 l326 -3 -51 -39 c-48 -37 -52 -42 -47 -73 5
-31 2 -35 -51 -72 -210 -141 -564 -346 -585 -338 -7 3 -45 40 -83 84 -118 134
-321 312 -499 439 -140 99 -328 202 -520 284 -186 79 -502 155 -755 181 -131
14 -574 6 -655 -11 -27 -6 -99 -20 -158 -31 -148 -27 -363 -89 -462 -133 -16
-7 -46 -19 -65 -26 -129 -49 -393 -202 -550 -318 -214 -159 -433 -382 -576
-587 -58 -83 -133 -196 -161 -243 -44 -71 -178 -347 -193 -397 -7 -22 -16 -44
-20 -50 -4 -5 -15 -35 -25 -65 -10 -30 -21 -59 -25 -65 -4 -5 -13 -32 -19 -60
-7 -27 -17 -65 -23 -82 l-10 -33 -646 0 c-356 0 -687 -5 -737 -10 -208 -22
-387 -133 -496 -305 -45 -70 -75 -145 -139 -345 -34 -107 -68 -209 -76 -227
-8 -17 -14 -37 -14 -43 0 -7 -13 -51 -29 -99 -16 -47 -55 -167 -86 -266 -107
-337 -118 -370 -161 -503 -24 -73 -44 -141 -44 -152 0 -20 8 -20 801 -20 l801
0 -114 -122 c-180 -194 -301 -345 -427 -536 -99 -150 -129 -203 -185 -334
-111 -257 -114 -470 -7 -635 47 -74 108 -121 226 -178 99 -48 178 -66 370 -85
101 -10 148 -10 300 4 268 25 408 49 705 119 245 58 592 163 795 242 33 13 96
37 140 53 44 17 118 47 165 67 47 20 101 43 120 50 29 11 127 55 317 141 39
18 50 18 104 -2 58 -20 233 -51 394 -70 202 -24 563 -14 760 21 560 99 1032
311 1460 654 120 96 402 369 486 470 50 60 70 84 105 123 l24 27 632 1 c348 0
635 4 639 8 4 4 21 54 39 112 17 58 41 134 52 170 11 36 28 90 38 120 10 30
35 111 55 180 20 69 45 150 55 180 10 30 33 102 50 160 17 58 44 140 58 182
l27 78 330 2 329 3 39 50 c84 109 232 308 393 528 17 23 52 70 77 105 26 34
47 66 47 71 0 5 -14 11 -31 15 -17 3 -555 6 -1195 6 -640 0 -1164 1 -1164 3 0
1 -25 75 -55 163 -30 89 -57 179 -61 201 -7 44 -12 38 126 143 40 30 168 132
285 225 260 207 341 270 385 298 l33 21 -7 -24 c-3 -14 -18 -72 -33 -130 -14
-58 -34 -134 -44 -170 -17 -61 -41 -191 -36 -196 1 -1 147 140 323 314 218
215 327 330 339 356 15 34 17 59 13 168 l-6 128 82 69 c334 285 606 653 715
969 63 182 29 215 -194 195z m28 -141 c-1 -27 -12 -54 -32 -83 -37 -51 -41
-44 -6 10 14 21 27 51 28 67 2 25 -2 29 -26 32 -16 2 -47 -4 -69 -12 -21 -9
-37 -12 -33 -6 8 13 95 39 120 35 17 -2 20 -9 18 -43z m-183 -27 c0 -2 -10 -9
-22 -15 -22 -11 -22 -10 -4 4 21 17 26 19 26 11z m-234 -200 c16 -8 22 -15 14
-15 -8 1 -24 7 -34 15 -25 19 -16 19 20 0z m-32 -59 c52 -22 76 -60 76 -121 0
-49 -3 -55 -44 -93 -95 -87 -240 -53 -262 63 -7 40 9 96 36 120 45 41 136 55
194 31z m-500 -301 c25 -17 86 -97 86 -114 0 -20 -105 -111 -253 -220 -54 -40
-102 -82 -106 -92 -6 -17 -10 -15 -38 23 -18 24 -47 60 -64 80 -18 21 -31 39
-28 41 2 2 51 40 109 84 58 44 141 110 185 147 43 36 81 66 83 66 1 0 13 -7
26 -15z m-3072 -282 c64 -38 91 -131 55 -187 -32 -49 -74 -68 -144 -64 -53 3
-67 8 -93 33 -67 65 -43 190 45 226 35 14 106 10 137 -8z m2958 -147 c0 -2 -7
-7 -16 -10 -8 -3 -12 -2 -9 4 6 10 25 14 25 6z m-584 -177 c117 -76 195 -188
198 -282 1 -49 0 -50 -64 -109 -236 -218 -828 -648 -1126 -819 -60 -34 -116
-67 -124 -74 -26 -20 -116 -68 -103 -55 6 7 87 65 180 130 213 150 286 201
378 270 41 30 104 78 142 105 225 167 513 423 513 457 0 24 -28 48 -57 48 -15
0 -75 -34 -151 -87 -395 -270 -568 -382 -797 -517 -55 -33 -116 -69 -135 -81
-19 -13 -114 -66 -211 -119 l-175 -96 -181 0 c-111 0 -184 4 -188 10 -4 6 6
10 22 10 16 0 33 4 39 9 5 4 50 25 99 46 225 95 775 380 945 490 252 163 340
224 436 304 17 14 48 39 70 56 73 56 154 138 154 157 0 34 -18 26 -195 -91
-93 -62 -122 -80 -215 -134 -89 -52 -174 -97 -280 -148 -247 -120 -310 -149
-310 -139 0 5 39 31 86 57 47 26 93 53 102 58 177 105 238 144 352 220 129 86
220 153 410 299 47 36 94 65 104 66 11 0 48 -18 82 -41z m-3059 -85 c54 -26
86 -76 91 -142 3 -49 0 -63 -26 -102 -75 -117 -217 -116 -305 2 -31 41 -33
114 -5 168 41 80 158 115 245 74z m4853 -1494 c0 -5 -24 -43 -52 -84 -29 -42
-78 -112 -108 -157 -30 -46 -67 -95 -82 -111 l-26 -28 -376 0 -375 0 -11 -42
c-6 -24 -15 -52 -20 -63 -5 -11 -17 -49 -26 -85 -9 -36 -20 -69 -24 -75 -4 -5
-11 -26 -15 -45 -4 -19 -18 -66 -30 -105 -23 -69 -49 -153 -121 -390 -131
-429 -108 -378 -174 -387 -30 -4 -84 -12 -120 -18 -83 -13 -352 -42 -356 -38
-4 4 29 121 54 194 12 33 35 106 52 164 18 58 40 130 50 160 17 50 88 274 162
510 16 52 34 104 38 115 5 11 12 31 15 45 4 14 9 33 11 43 5 16 -16 17 -339
17 -189 0 -346 3 -350 6 -3 3 26 52 64 109 38 57 69 106 69 109 0 18 77 109
104 123 79 41 85 41 1054 42 579 0 932 -3 932 -9z m-7280 -6 c0 -3 -32 -54
-70 -112 -39 -59 -75 -114 -80 -122 -5 -8 -27 -40 -48 -70 l-38 -55 -598 -5
-599 -5 -22 -80 c-12 -44 -27 -93 -33 -108 -28 -67 -74 -62 581 -65 325 -2
593 -5 595 -7 3 -3 -144 -233 -203 -317 l-26 -38 -549 0 -548 0 -12 -52 c-7
-29 -18 -69 -26 -88 -7 -19 -31 -96 -54 -170 -23 -74 -45 -142 -50 -151 -5 -9
-12 -33 -15 -52 -4 -20 -12 -40 -19 -46 -15 -13 -433 -80 -503 -81 l-22 0 19
63 c21 73 54 179 80 257 11 30 35 109 55 175 20 66 40 129 45 140 5 11 27 81
50 155 175 559 192 600 292 701 58 58 175 117 253 128 67 9 1545 14 1545 5z
m685 -101 c-40 -121 -108 -339 -170 -548 -25 -85 -37 -122 -98 -320 -13 -44
-39 -127 -56 -185 -18 -58 -40 -132 -50 -165 -10 -33 -29 -94 -41 -135 -13
-41 -27 -79 -31 -84 -15 -17 -533 -96 -545 -83 -4 4 -2 12 3 19 6 7 14 29 18
48 4 19 18 67 30 105 13 39 37 117 54 175 18 58 41 130 51 160 10 30 35 109
55 175 20 66 40 129 45 140 5 11 14 40 21 65 6 25 19 70 29 100 10 30 29 91
43 135 84 271 151 472 160 483 7 9 72 12 262 12 l253 0 -33 -97z m1873 82 c86
-20 167 -74 206 -138 25 -41 30 -61 34 -132 2 -45 -1 -114 -7 -151 -14 -80
-82 -226 -138 -294 -82 -100 -218 -188 -341 -220 -41 -11 -77 -22 -79 -24 -2
-2 73 -142 166 -311 94 -168 171 -308 171 -311 0 -2 -125 -4 -278 -4 -276 0
-279 0 -299 23 -25 27 -100 161 -211 377 -47 91 -89 171 -95 178 -7 9 -55 12
-179 12 l-169 0 7 23 c3 12 17 45 30 72 12 28 39 88 59 135 20 47 43 90 51 97
11 8 105 12 322 13 297 1 308 1 357 24 68 31 107 88 113 164 3 51 1 60 -21 80
-14 13 -42 28 -64 33 -21 5 -216 9 -434 9 l-397 0 -30 -97 c-17 -54 -42 -138
-57 -188 -14 -49 -35 -117 -45 -150 -10 -33 -24 -80 -30 -105 -6 -25 -15 -54
-20 -65 -5 -11 -18 -54 -29 -95 -19 -74 -80 -279 -123 -413 -16 -50 -27 -69
-42 -72 -57 -12 -342 -56 -465 -71 -62 -8 -60 -25 -11 136 16 52 41 136 55
185 15 50 38 125 51 167 34 106 67 213 104 338 59 194 72 235 95 305 13 39 28
90 34 115 7 25 16 54 21 65 4 11 27 81 51 155 23 74 44 138 46 143 2 4 346 7
764 7 650 0 770 -2 827 -15z m2525 2 c-61 -101 -228 -347 -237 -347 -6 0 -294
-1 -641 -2 -511 -3 -635 -6 -655 -17 -102 -56 -139 -172 -68 -213 18 -10 143
-14 553 -19 457 -5 538 -8 588 -22 262 -76 318 -380 122 -661 -65 -94 -209
-207 -309 -245 -138 -51 -141 -51 -881 -49 l-689 3 -13 25 c-130 247 -183 352
-183 360 0 7 262 10 758 10 l759 0 43 23 c61 32 99 113 72 153 -24 37 -45 38
-572 42 -414 3 -527 6 -575 18 -146 37 -224 124 -233 259 -18 287 204 608 471
680 75 20 1702 22 1690 2z m-5124 -1863 c47 -96 108 -194 208 -334 87 -121
382 -419 479 -482 103 -69 106 -74 45 -92 -28 -8 -65 -21 -83 -30 -18 -8 -71
-29 -118 -46 -47 -17 -107 -40 -135 -50 -47 -18 -163 -55 -350 -113 -44 -13
-138 -39 -210 -56 -71 -17 -157 -39 -190 -47 -33 -8 -132 -22 -220 -31 -359
-34 -541 15 -592 157 -15 42 -16 138 -3 200 48 218 368 631 732 944 l78 66
159 0 159 0 41 -86z m2751 -178 c0 -5 -138 -92 -250 -157 -292 -171 -942 -488
-1425 -694 -141 -60 -420 -174 -480 -195 -201 -72 -363 -126 -435 -148 -190
-55 -299 -85 -380 -104 -47 -10 -107 -25 -135 -33 -27 -7 -75 -16 -105 -19
l-55 -5 45 10 c25 6 68 16 95 24 28 7 68 16 90 20 52 8 254 65 280 78 11 6 42
16 70 22 27 7 41 13 30 14 -11 1 -35 -3 -53 -8 -25 -8 -32 -7 -32 4 0 7 6 16
13 18 37 16 -32 4 -107 -18 -201 -58 -560 -116 -706 -114 -60 1 -44 4 80 14
85 8 182 18 215 24 119 20 261 51 330 72 243 71 465 143 580 186 394 150 803
320 1045 435 47 22 123 57 170 78 47 21 128 58 180 83 52 24 118 54 145 66 28
13 73 33 100 46 87 42 247 115 325 150 41 18 136 61 210 94 124 55 160 68 160
57z m-3732 -1293 c-10 -2 -28 -2 -40 0 -13 2 -5 4 17 4 22 1 32 -1 23 -4z
m105 -10 c-7 -2 -21 -2 -30 0 -10 3 -4 5 12 5 17 0 24 -2 18 -5z m345 -60
c-10 -2 -28 -2 -40 0 -13 2 -5 4 17 4 22 1 32 -1 23 -4z m-265 -30 c-45 -2
-122 -2 -170 0 -48 1 -11 3 82 3 94 0 133 -2 88 -3z"/>
<path d="M8075 6662 c-70 -30 -102 -50 -129 -82 -22 -26 -26 -41 -26 -90 l0
-59 105 110 c93 98 122 140 98 138 -5 0 -26 -8 -48 -17z"/>
<path d="M3659 2526 c-140 -37 -230 -146 -233 -280 -3 -177 154 -311 345 -293
57 5 139 38 161 65 9 10 2 33 -32 102 l-44 89 -41 -25 c-82 -48 -169 -17 -169
60 0 43 19 65 65 75 43 10 85 -1 115 -30 13 -12 26 -21 28 -18 2 2 24 45 50
96 l46 92 -45 26 c-48 29 -134 55 -175 54 -14 0 -46 -6 -71 -13z m195 -69 l26
-17 -22 -45 c-12 -25 -27 -43 -33 -41 -5 3 -26 10 -47 17 -101 33 -202 -52
-183 -154 8 -40 56 -94 92 -103 27 -7 108 0 135 11 13 5 22 -3 39 -36 20 -41
21 -43 3 -56 -49 -36 -163 -40 -238 -9 -50 21 -107 76 -129 125 -54 123 11
269 142 318 49 18 181 12 215 -10z"/>
<path d="M4357 2529 c-139 -33 -235 -164 -224 -305 8 -110 64 -199 154 -244
68 -35 187 -36 253 -2 58 30 95 66 128 122 24 40 27 55 27 140 0 78 -4 102
-22 135 -26 49 -102 121 -146 140 -45 18 -125 25 -170 14z m151 -64 c79 -34
132 -109 140 -200 5 -72 -7 -117 -49 -175 -58 -80 -184 -113 -274 -71 -92 42
-140 119 -139 227 0 66 3 77 36 127 63 94 185 134 286 92z"/>
<path d="M4364 2366 c-79 -34 -86 -188 -12 -240 13 -9 43 -16 68 -16 73 1 112
46 112 130 0 107 -77 165 -168 126z m79 -47 c31 -17 37 -28 37 -74 0 -55 -22
-85 -64 -85 -44 0 -61 22 -61 82 0 40 5 53 24 69 27 22 35 23 64 8z"/>
<path d="M7260 2531 c-242 -51 -333 -339 -157 -498 109 -98 297 -110 397 -26
l30 24 -46 90 -45 90 -31 -22 c-17 -12 -51 -24 -77 -27 -40 -4 -50 -1 -74 23
-33 34 -35 74 -4 110 28 33 95 37 135 8 15 -11 32 -23 39 -27 8 -4 27 23 59
86 l46 92 -28 23 c-54 43 -172 69 -244 54z m160 -67 c22 -9 40 -20 40 -25 0
-6 -9 -27 -20 -49 l-20 -39 -35 14 c-44 19 -75 19 -125 -1 -101 -41 -107 -189
-9 -239 31 -17 107 -17 155 -1 17 6 23 1 39 -34 19 -42 19 -43 0 -56 -51 -38
-160 -42 -238 -9 -47 20 -105 77 -128 129 -50 111 6 246 126 302 60 29 154 32
215 8z"/>
<path d="M4930 2245 l0 -285 105 0 105 0 0 78 0 77 51 -77 50 -78 94 0 95 0 0
285 0 285 -105 0 -104 0 -3 -81 -3 -80 -52 80 -52 81 -91 0 -90 0 0 -285z
m162 218 c8 -10 50 -74 94 -142 l79 -125 3 143 3 142 52 -3 52 -3 3 -233 2
-233 -57 3 -57 3 -86 133 -85 134 -3 -136 -3 -136 -54 0 -55 0 0 235 0 235 48
0 c34 0 53 -5 64 -17z"/>
<path d="M5677 2523 c-4 -3 -7 -132 -7 -285 l0 -278 105 0 104 0 3 78 3 77 50
-77 50 -77 98 0 97 -1 -2 283 -3 282 -102 3 -102 3 -3 -83 -3 -83 -53 83 -53
82 -88 0 c-48 0 -91 -3 -94 -7z m239 -177 c45 -70 87 -133 93 -139 8 -8 11 29
11 132 l0 142 53 -3 52 -3 3 -232 2 -233 -57 0 -58 0 -90 143 -90 142 -3 -143
-3 -142 -49 0 -50 0 0 236 0 235 52 -3 52 -3 82 -129z"/>
<path d="M6420 2245 l0 -285 185 0 185 0 0 285 0 285 -185 0 -185 0 0 -285z
m320 185 l0 -50 -80 0 -80 0 0 -45 0 -45 75 0 75 0 0 -45 0 -45 -75 0 -75 0 0
-50 0 -50 80 0 80 0 0 -45 0 -45 -135 0 -135 0 0 228 c0 126 3 232 7 235 3 4
64 7 135 7 l128 0 0 -50z"/>
<path d="M7710 2430 l0 -100 55 0 55 0 0 -185 0 -185 105 0 105 0 0 185 0 185
55 0 55 0 0 100 0 100 -215 0 -215 0 0 -100z m378 -2 l3 -48 -55 0 -56 0 0
-185 0 -185 -55 0 -55 0 0 185 0 185 -55 0 -55 0 0 50 0 50 163 -2 162 -3 3
-47z"/>
<path d="M305 2451 c-11 -5 -36 -25 -55 -46 -33 -34 -35 -41 -35 -100 0 -61 2
-66 38 -103 66 -67 143 -76 219 -25 84 57 82 193 -4 254 -34 25 -127 36 -163
20z"/>
<path d="M836 2257 c-11 -8 -20 -31 -23 -59 -5 -40 -2 -50 20 -72 37 -37 89
-36 128 3 16 16 29 40 29 53 0 23 -24 66 -44 80 -18 13 -91 9 -110 -5z"/>
</g>
</svg>
